<?xml version="1.0" standalone="no"?>
<!DOCTYPE svg PUBLIC "-//W3C//DTD SVG 20010904//EN"
 "http://www.w3.org/TR/2001/REC-SVG-20010904/DTD/svg10.dtd">
<svg version="1.0" xmlns="http://www.w3.org/2000/svg"
 width="225.000000pt" height="225.000000pt" viewBox="0 0 225.000000 225.000000"
 preserveAspectRatio="xMidYMid meet">
<metadata>
Created by potrace 1.11, written by Peter Selinger 2001-2013
</metadata>
<g transform="translate(0.000000,225.000000) scale(0.100000,-0.100000)"
fill="#000000" stroke="none">
<path d="M604 1845 c-41 -41 -224 -435 -224 -482 0 -11 6 -27 13 -36 9 -13
346 -187 361 -187 2 0 50 -22 107 -49 156 -74 436 -200 507 -228 60 -24 63
-25 88 -8 18 12 53 73 114 199 48 99 96 206 107 236 30 82 21 97 -90 152 -261
131 -918 428 -947 428 -6 0 -22 -11 -36 -25z m192 -139 c65 -29 168 -76 228
-105 59 -28 110 -51 112 -51 18 0 436 -214 441 -226 3 -8 -1 -23 -10 -31 -14
-14 -19 -14 -54 0 -58 23 -391 177 -581 268 -90 43 -166 79 -168 79 -14 0
-124 74 -124 83 0 14 19 37 30 37 4 0 60 -24 126 -54z"/>
<path d="M1703 1173 c-7 -16 -33 -73 -57 -127 -48 -107 -48 -114 3 -136 20 -8
36 -29 57 -72 21 -45 38 -66 63 -79 59 -31 68 -20 188 245 69 151 69 155 7
181 -28 11 -42 11 -99 -2 -63 -14 -75 -13 -135 11 -10 4 -19 -3 -27 -21z"/>
<path d="M674 1066 c-20 -62 -2 -140 48 -210 24 -33 28 -49 28 -103 l0 -63
-255 0 -255 0 0 -85 0 -85 321 2 322 3 19 26 c15 20 21 49 25 128 l6 101 41
19 c49 22 111 84 103 104 -5 13 -236 124 -344 165 l-52 20 -7 -22z"/>
</g>
</svg>
